<mxfile host="app.diagrams.net" modified="2024-06-14T09:40:22.621Z" agent="Mozilla/5.0 (Windows NT 10.0; Win64; x64) AppleWebKit/537.36 (KHTML, like Gecko) Chrome/123.0.0.0 Safari/537.36 OPR/109.0.0.0 (Edition std-1)" version="24.5.4" etag="8cZlDnGNVoJLG1be4jrn" type="github">
  <diagram name="Page-1" id="Lf-9h-ScAfXwyApoIXNA">
    <mxGraphModel>
      <root>
        <mxCell id="0" />
        <mxCell id="1" parent="0" />
      </root>
    </mxGraphModel>
  </diagram>
</mxfile>
